<mxfile host="app.diagrams.net" agent="Mozilla/5.0 (Windows NT 10.0; Win64; x64) AppleWebKit/537.36 (KHTML, like Gecko) Chrome/135.0.0.0 Safari/537.36 Edg/135.0.0.0" version="26.2.15">
  <diagram id="C5RBs43oDa-KdzZeNtuy" name="Page-1">
    <mxGraphModel dx="915" dy="596" grid="0" gridSize="10" guides="1" tooltips="1" connect="1" arrows="1" fold="1" page="1" pageScale="1" pageWidth="827" pageHeight="1169" math="0" shadow="0">
      <root>
        <mxCell id="WIyWlLk6GJQsqaUBKTNV-0" />
        <mxCell id="WIyWlLk6GJQsqaUBKTNV-1" parent="WIyWlLk6GJQsqaUBKTNV-0" />
        <mxCell id="gVehfxkovYp_prCZ0jp4-5" value="" style="edgeStyle=orthogonalEdgeStyle;rounded=0;orthogonalLoop=1;jettySize=auto;html=1;" parent="WIyWlLk6GJQsqaUBKTNV-1" source="gVehfxkovYp_prCZ0jp4-3" target="gVehfxkovYp_prCZ0jp4-4" edge="1">
          <mxGeometry relative="1" as="geometry" />
        </mxCell>
        <mxCell id="gVehfxkovYp_prCZ0jp4-3" value="&lt;pre style=&quot;font-family: &amp;quot;Fira Code&amp;quot;, &amp;quot;Fira Mono&amp;quot;, Menlo, Consolas, &amp;quot;DejaVu Sans Mono&amp;quot;, monospace; scrollbar-color: rgba(0, 0, 0, 0.25) rgba(0, 0, 0, 0); margin-top: 0.5em; margin-bottom: 0.5em; padding: 1em; border: 0px; font-variant-numeric: inherit; font-variant-east-asian: inherit; font-variant-alternates: inherit; font-variant-position: inherit; font-variant-emoji: inherit; font-stretch: inherit; line-height: 1.5; font-optical-sizing: inherit; font-size-adjust: inherit; font-kerning: inherit; font-feature-settings: inherit; font-variation-settings: inherit; vertical-align: baseline; color: rgb(56, 58, 66); direction: ltr; text-align: left; word-break: normal; tab-size: 2; hyphens: none; overflow: auto; border-radius: 0px; background: none 0% 0% / auto repeat scroll padding-box border-box rgb(255, 255, 255); letter-spacing: 0.5px;&quot; class=&quot;language-&quot; data-v-e2d1d10f=&quot;&quot;&gt;&lt;code style=&quot;font-family: &amp;quot;Fira Code&amp;quot;, &amp;quot;Fira Mono&amp;quot;, Menlo, Consolas, &amp;quot;DejaVu Sans Mono&amp;quot;, monospace; scrollbar-color: rgba(0, 0, 0, 0.25) rgba(0, 0, 0, 0); margin: 0px; padding: 0px; border: 0px; font-style: inherit; font-variant: inherit; font-stretch: inherit; line-height: 1.5; font-optical-sizing: inherit; font-size-adjust: inherit; font-kerning: inherit; font-feature-settings: inherit; font-variation-settings: inherit; vertical-align: baseline; direction: ltr; text-wrap-mode: wrap; word-spacing: normal; word-break: break-word; tab-size: 2; hyphens: none; max-width: 100%; overflow: auto;&quot; class=&quot;language-&quot;&gt;&lt;b style=&quot;&quot;&gt;&lt;font style=&quot;font-size: 16px;&quot;&gt;图像预处理（读取图像、转为位相物体），设置参数&lt;/font&gt;&lt;/b&gt;&lt;/code&gt;&lt;/pre&gt;" style="rounded=0;whiteSpace=wrap;html=1;" parent="WIyWlLk6GJQsqaUBKTNV-1" vertex="1">
          <mxGeometry x="195" y="172" width="439" height="60" as="geometry" />
        </mxCell>
        <mxCell id="gVehfxkovYp_prCZ0jp4-10" value="" style="edgeStyle=orthogonalEdgeStyle;rounded=0;orthogonalLoop=1;jettySize=auto;html=1;" parent="WIyWlLk6GJQsqaUBKTNV-1" source="gVehfxkovYp_prCZ0jp4-4" edge="1">
          <mxGeometry relative="1" as="geometry">
            <mxPoint x="414" y="352" as="targetPoint" />
          </mxGeometry>
        </mxCell>
        <mxCell id="gVehfxkovYp_prCZ0jp4-4" value="&lt;pre style=&quot;font-family: &amp;quot;Fira Code&amp;quot;, &amp;quot;Fira Mono&amp;quot;, Menlo, Consolas, &amp;quot;DejaVu Sans Mono&amp;quot;, monospace; scrollbar-color: rgba(0, 0, 0, 0.25) rgba(0, 0, 0, 0); margin-top: 0.5em; margin-bottom: 0.5em; padding: 1em; border: 0px; font-variant-numeric: inherit; font-variant-east-asian: inherit; font-variant-alternates: inherit; font-variant-position: inherit; font-variant-emoji: inherit; font-stretch: inherit; line-height: 1.5; font-optical-sizing: inherit; font-size-adjust: inherit; font-kerning: inherit; font-feature-settings: inherit; font-variation-settings: inherit; vertical-align: baseline; color: rgb(56, 58, 66); direction: ltr; text-align: left; word-break: normal; tab-size: 2; hyphens: none; overflow: auto; border-radius: 0px; background: none 0% 0% / auto repeat scroll padding-box border-box rgb(255, 255, 255); letter-spacing: 0.5px;&quot; class=&quot;language-&quot; data-v-e2d1d10f=&quot;&quot;&gt;&lt;code style=&quot;font-family: &amp;quot;Fira Code&amp;quot;, &amp;quot;Fira Mono&amp;quot;, Menlo, Consolas, &amp;quot;DejaVu Sans Mono&amp;quot;, monospace; scrollbar-color: transparent transparent; margin: 0px; padding: 0px; border: 0px; font-style: inherit; font-variant: inherit; font-stretch: inherit; line-height: 1.5; font-optical-sizing: inherit; font-size-adjust: inherit; font-kerning: inherit; font-feature-settings: inherit; font-variation-settings: inherit; vertical-align: baseline; direction: ltr; text-wrap-mode: wrap; word-spacing: normal; word-break: break-word; tab-size: 2; hyphens: none; max-width: 100%; overflow: auto;&quot; class=&quot;language-&quot;&gt;&lt;b style=&quot;&quot;&gt;&lt;font style=&quot;font-size: 16px;&quot;&gt;设计泽尼克滤波器。分别生成正、负相衬滤波器&lt;/font&gt;&lt;/b&gt;&lt;/code&gt;&lt;/pre&gt;" style="rounded=0;whiteSpace=wrap;html=1;" parent="WIyWlLk6GJQsqaUBKTNV-1" vertex="1">
          <mxGeometry x="219" y="262" width="390" height="60" as="geometry" />
        </mxCell>
        <mxCell id="gVehfxkovYp_prCZ0jp4-8" value="" style="edgeStyle=orthogonalEdgeStyle;rounded=0;orthogonalLoop=1;jettySize=auto;html=1;" parent="WIyWlLk6GJQsqaUBKTNV-1" source="gVehfxkovYp_prCZ0jp4-6" target="gVehfxkovYp_prCZ0jp4-3" edge="1">
          <mxGeometry relative="1" as="geometry" />
        </mxCell>
        <mxCell id="gVehfxkovYp_prCZ0jp4-6" value="&lt;b&gt;&lt;font style=&quot;font-size: 16px;&quot;&gt;仿真开始&lt;/font&gt;&lt;/b&gt;" style="rounded=1;whiteSpace=wrap;html=1;" parent="WIyWlLk6GJQsqaUBKTNV-1" vertex="1">
          <mxGeometry x="354" y="72" width="120" height="60" as="geometry" />
        </mxCell>
        <mxCell id="gVehfxkovYp_prCZ0jp4-14" value="" style="edgeStyle=orthogonalEdgeStyle;rounded=0;orthogonalLoop=1;jettySize=auto;html=1;" parent="WIyWlLk6GJQsqaUBKTNV-1" source="gVehfxkovYp_prCZ0jp4-11" edge="1">
          <mxGeometry relative="1" as="geometry">
            <mxPoint x="413" y="442" as="targetPoint" />
          </mxGeometry>
        </mxCell>
        <mxCell id="gVehfxkovYp_prCZ0jp4-11" value="&lt;pre style=&quot;font-family: &amp;quot;Fira Code&amp;quot;, &amp;quot;Fira Mono&amp;quot;, Menlo, Consolas, &amp;quot;DejaVu Sans Mono&amp;quot;, monospace; scrollbar-color: rgba(0, 0, 0, 0.25) rgba(0, 0, 0, 0); margin-top: 0.5em; margin-bottom: 0.5em; padding: 1em; border: 0px; font-variant-numeric: inherit; font-variant-east-asian: inherit; font-variant-alternates: inherit; font-variant-position: inherit; font-variant-emoji: inherit; font-stretch: inherit; line-height: 1.5; font-optical-sizing: inherit; font-size-adjust: inherit; font-kerning: inherit; font-feature-settings: inherit; font-variation-settings: inherit; vertical-align: baseline; color: rgb(56, 58, 66); direction: ltr; text-align: left; word-break: normal; tab-size: 2; hyphens: none; overflow: auto; border-radius: 0px; background: none 0% 0% / auto repeat scroll padding-box border-box rgb(255, 255, 255); letter-spacing: 0.5px;&quot; class=&quot;language-&quot; data-v-e2d1d10f=&quot;&quot;&gt;&lt;code style=&quot;font-family: &amp;quot;Fira Code&amp;quot;, &amp;quot;Fira Mono&amp;quot;, Menlo, Consolas, &amp;quot;DejaVu Sans Mono&amp;quot;, monospace; scrollbar-color: rgba(0, 0, 0, 0.25) rgba(0, 0, 0, 0); margin: 0px; padding: 0px; border: 0px; font-style: inherit; font-variant: inherit; font-stretch: inherit; line-height: 1.5; font-optical-sizing: inherit; font-size-adjust: inherit; font-kerning: inherit; font-feature-settings: inherit; font-variation-settings: inherit; vertical-align: baseline; direction: ltr; text-wrap-mode: wrap; word-spacing: normal; word-break: break-word; tab-size: 2; hyphens: none; max-width: 100%; overflow: auto;&quot; class=&quot;language-&quot;&gt;&lt;b style=&quot;&quot;&gt;&lt;font style=&quot;font-size: 16px;&quot;&gt;滤波，逆变换，得到滤波后的光场分布&lt;/font&gt;&lt;/b&gt;&lt;/code&gt;&lt;/pre&gt;" style="whiteSpace=wrap;html=1;rounded=0;" parent="WIyWlLk6GJQsqaUBKTNV-1" vertex="1">
          <mxGeometry x="219" y="352" width="390" height="60" as="geometry" />
        </mxCell>
        <mxCell id="gVehfxkovYp_prCZ0jp4-24" value="" style="edgeStyle=orthogonalEdgeStyle;rounded=0;orthogonalLoop=1;jettySize=auto;html=1;" parent="WIyWlLk6GJQsqaUBKTNV-1" source="gVehfxkovYp_prCZ0jp4-18" target="gVehfxkovYp_prCZ0jp4-23" edge="1">
          <mxGeometry relative="1" as="geometry" />
        </mxCell>
        <mxCell id="gVehfxkovYp_prCZ0jp4-18" value="&lt;pre style=&quot;font-family: &amp;quot;Fira Code&amp;quot;, &amp;quot;Fira Mono&amp;quot;, Menlo, Consolas, &amp;quot;DejaVu Sans Mono&amp;quot;, monospace; scrollbar-color: rgba(0, 0, 0, 0.25) rgba(0, 0, 0, 0); margin-top: 0.5em; margin-bottom: 0.5em; padding: 1em; border: 0px; font-variant-numeric: inherit; font-variant-east-asian: inherit; font-variant-alternates: inherit; font-variant-position: inherit; font-variant-emoji: inherit; font-stretch: inherit; line-height: 1.5; font-optical-sizing: inherit; font-size-adjust: inherit; font-kerning: inherit; font-feature-settings: inherit; font-variation-settings: inherit; vertical-align: baseline; color: rgb(56, 58, 66); direction: ltr; text-align: left; word-break: normal; tab-size: 2; hyphens: none; overflow: auto; border-radius: 0px; background: none 0% 0% / auto repeat scroll padding-box border-box rgb(255, 255, 255); letter-spacing: 0.5px;&quot; class=&quot;language-&quot; data-v-e2d1d10f=&quot;&quot;&gt;&lt;code style=&quot;font-family: &amp;quot;Fira Code&amp;quot;, &amp;quot;Fira Mono&amp;quot;, Menlo, Consolas, &amp;quot;DejaVu Sans Mono&amp;quot;, monospace; scrollbar-color: rgba(0, 0, 0, 0.25) rgba(0, 0, 0, 0); margin: 0px; padding: 0px; border: 0px; font-style: inherit; font-variant: inherit; font-stretch: inherit; line-height: 1.5; font-optical-sizing: inherit; font-size-adjust: inherit; font-kerning: inherit; font-feature-settings: inherit; font-variation-settings: inherit; vertical-align: baseline; direction: ltr; text-wrap-mode: wrap; word-spacing: normal; word-break: break-word; tab-size: 2; hyphens: none; max-width: 100%; overflow: auto;&quot; class=&quot;language-&quot;&gt;&lt;b style=&quot;&quot;&gt;&lt;font style=&quot;font-size: 16px;&quot;&gt;显示三种滤波下的图像，与原图进行对比&lt;/font&gt;&lt;/b&gt;&lt;/code&gt;&lt;/pre&gt;" style="rounded=0;whiteSpace=wrap;html=1;" parent="WIyWlLk6GJQsqaUBKTNV-1" vertex="1">
          <mxGeometry x="218" y="442" width="390" height="60" as="geometry" />
        </mxCell>
        <mxCell id="gVehfxkovYp_prCZ0jp4-23" value="&lt;b&gt;&lt;font style=&quot;font-size: 16px;&quot;&gt;结束仿真&lt;/font&gt;&lt;/b&gt;" style="rounded=1;whiteSpace=wrap;html=1;" parent="WIyWlLk6GJQsqaUBKTNV-1" vertex="1">
          <mxGeometry x="353" y="532" width="120" height="60" as="geometry" />
        </mxCell>
      </root>
    </mxGraphModel>
  </diagram>
</mxfile>
